<?xml version="1.0" encoding="UTF-8" standalone="no"?>
<svg
   xmlns:dc="http://purl.org/dc/elements/1.1/"
   xmlns:cc="http://creativecommons.org/ns#"
   xmlns:rdf="http://www.w3.org/1999/02/22-rdf-syntax-ns#"
   xmlns:svg="http://www.w3.org/2000/svg"
   xmlns="http://www.w3.org/2000/svg"
   xmlns:sodipodi="http://sodipodi.sourceforge.net/DTD/sodipodi-0.dtd"
   xmlns:inkscape="http://www.inkscape.org/namespaces/inkscape"
   inkscape:export-ydpi="96"
   inkscape:export-xdpi="96"
   inkscape:export-filename="W:\My Documents\GitHub\qgis-kmltools-plugin\html.png"
   inkscape:version="1.0 (4035a4fb49, 2020-05-01)"
   sodipodi:docname="html.svg"
   id="svg4566"
   version="1.1"
   width="24"
   viewBox="0 0 24 24"
   height="24">
  <metadata
     id="metadata4572">
    <rdf:RDF>
      <cc:Work
         rdf:about="">
        <dc:format>image/svg+xml</dc:format>
        <dc:type
           rdf:resource="http://purl.org/dc/dcmitype/StillImage" />
        <dc:title />
      </cc:Work>
    </rdf:RDF>
  </metadata>
  <defs
     id="defs4570" />
  <sodipodi:namedview
     inkscape:document-rotation="0"
     inkscape:current-layer="g4564"
     inkscape:window-maximized="1"
     inkscape:window-y="-8"
     inkscape:window-x="-8"
     inkscape:cy="12"
     inkscape:cx="12"
     inkscape:zoom="34.458333"
     showgrid="false"
     id="namedview4568"
     inkscape:window-height="1017"
     inkscape:window-width="1920"
     inkscape:pageshadow="2"
     inkscape:pageopacity="0"
     guidetolerance="10"
     gridtolerance="10"
     objecttolerance="10"
     borderopacity="1"
     bordercolor="#666666"
     pagecolor="#ffffff" />
  <linearGradient
     id="linearGradient4548"
     y2="21"
     y1="15"
     x2="-10"
     x1="-10"
     gradientUnits="userSpaceOnUse">
    <stop
       id="stop4544"
       stop-color="#555753"
       offset="0" />
    <stop
       id="stop4546"
       stop-opacity="0"
       stop-color="#555753"
       offset="1" />
  </linearGradient>
  <g
     id="g4564"
     transform="translate(0,-8)">
    <text
       inkscape:export-ydpi="96"
       inkscape:export-xdpi="96"
       id="text4576"
       y="17.884613"
       x="0.076923087"
       style="font-style:normal;font-weight:normal;font-size:8.53336px;line-height:125%;font-family:sans-serif;letter-spacing:0px;word-spacing:0px;fill:#8cbe8c;fill-opacity:1;stroke:#4c4d4c;stroke-width:0.377953;stroke-linecap:butt;stroke-linejoin:miter;stroke-miterlimit:4;stroke-dasharray:none;stroke-opacity:0.933333"
       xml:space="preserve"><tspan
         style="font-style:normal;font-variant:normal;font-weight:bold;font-stretch:normal;font-size:8.53336px;line-height:100%;font-family:Arial;-inkscape-font-specification:'Arial Bold';fill:#000000;fill-opacity:1;stroke:none;stroke-width:0.377953;stroke-miterlimit:4;stroke-dasharray:none;stroke-opacity:0.933333"
         y="17.884613"
         x="0.076923087"
         id="tspan4574"
         sodipodi:role="line">HTML</tspan></text>
    <g
       id="g4556"
       transform="translate(33,8)">
      <rect
         style="fill:#c4a000"
         id="rect4550"
         y="13"
         x="-20"
         width="11"
         rx="2.0114901"
         height="11" />
      <path
         style="fill:#fcffff"
         inkscape:connector-curvature="0"
         id="path4552"
         d="m -15,14 v 2.0625 c -0.537663,0.111041 -1.024662,0.383291 -1.375,0.78125 l -1.78125,-1.03125 -0.5,0.875 1.78125,1.03125 C -16.957063,17.966182 -17,18.225145 -17,18.5 c 0,0.274855 0.04294,0.533818 0.125,0.78125 l -1.78125,1.03125 0.5,0.875 1.78125,-1.03125 c 0.352503,0.40042 0.832682,0.670182 1.375,0.78125 V 23 h 1 v -2.0625 c 0.537663,-0.111041 1.024662,-0.383291 1.375,-0.78125 l 1.78125,1.03125 0.5,-0.875 -1.78125,-1.03125 C -12.042937,19.033818 -12,18.774855 -12,18.5 c 0,-0.274855 -0.04294,-0.533818 -0.125,-0.78125 l 1.78125,-1.03125 -0.5,-0.875 -1.78125,1.03125 C -12.977503,16.44333 -13.457682,16.173568 -14,16.0625 V 14 Z m 0.5,3.5 c 0.552,0 1,0.448 1,1 0,0.552 -0.448,1 -1,1 -0.552,0 -1,-0.448 -1,-1 0,-0.552 0.448,-1 1,-1 z" />
      <path
         style="opacity:0.3;fill:#fcffff;fill-rule:evenodd"
         inkscape:connector-curvature="0"
         id="path4554"
         d="m -19,19 9,-0.0096 c 0,0 0,0 0,-2 C -10,14 -11,14 -14.5,14 c -3.5,0 -4.5,0 -4.5,3 0,2 0,2 0,2 z" />
    </g>
  </g>
</svg>
