<?xml version="1.0" encoding="UTF-8" standalone="no"?>
<svg
   height="24"
   width="24"
   version="1.1"
   id="svg432"
   sodipodi:docname="kmlImageImport4.svg"
   inkscape:version="1.2.1 (9c6d41e410, 2022-07-14)"
   xmlns:inkscape="http://www.inkscape.org/namespaces/inkscape"
   xmlns:sodipodi="http://sodipodi.sourceforge.net/DTD/sodipodi-0.dtd"
   xmlns="http://www.w3.org/2000/svg"
   xmlns:svg="http://www.w3.org/2000/svg">
  <defs
     id="defs436" />
  <sodipodi:namedview
     id="namedview434"
     pagecolor="#ffffff"
     bordercolor="#666666"
     borderopacity="1.0"
     inkscape:showpageshadow="2"
     inkscape:pageopacity="0.0"
     inkscape:pagecheckerboard="0"
     inkscape:deskcolor="#d1d1d1"
     showgrid="false"
     inkscape:zoom="24.660349"
     inkscape:cx="15.267424"
     inkscape:cy="14.091447"
     inkscape:window-width="1350"
     inkscape:window-height="1040"
     inkscape:window-x="63"
     inkscape:window-y="162"
     inkscape:window-maximized="0"
     inkscape:current-layer="svg432" />
  <linearGradient
     id="a"
     gradientTransform="matrix(0.70279194,0,0,0.81852386,19.526218,-0.53931713)"
     gradientUnits="userSpaceOnUse"
     x1="9"
     x2="9"
     y1="21"
     y2="24">
    <stop
       offset="0"
       stop-color="#d8cd7e"
       id="stop388" />
    <stop
       offset="1"
       stop-color="#ab983d"
       id="stop390" />
  </linearGradient>
  <linearGradient
     id="b"
     gradientTransform="matrix(0.68699382,0,0,0.86030045,19.747286,-1.986355)"
     gradientUnits="userSpaceOnUse"
     x1="12"
     x2="12"
     y1="18"
     y2="24">
    <stop
       offset="0"
       stop-color="#4dadee"
       id="stop393" />
    <stop
       offset="1"
       stop-color="#c7e5f9"
       id="stop395" />
  </linearGradient>
  <ellipse
     cx="12.003075"
     cy="11.982799"
     fill="#71c9f1"
     id="circle677"
     style="stroke-width:1.98167;fill:#94bbf1;fill-opacity:1"
     rx="11.879884"
     ry="11.90016" />
  <path
     id="path679"
     style="fill:#139229;fill-opacity:1;stroke-width:1.98167"
     d="m 15.568153,0.62001929 c 0.01076,0.0197891 0.153835,0.20743823 0.234064,0.27817707 0.227697,0.19635244 0.518232,0.31613604 0.799388,0.42918744 0.176022,0.070409 0.230484,0.1581586 0.442342,0.2642683 0.261356,0.1307033 0.502358,0.2664289 0.781536,0.3616302 0.07999,0.02737 0.283802,0.1338196 0.364982,0.077492 0.03563,-0.024989 0.04204,-0.098701 0.03174,-0.1788281 C 17.400511,1.3382566 16.508643,0.9214897 15.568153,0.62001929 Z M 13.17594,0.94588386 c -0.07393,-0.002226 -0.150892,-0.001073 -0.22613,0.003974 l 0.0039,-0.001988 c -0.150677,0.010095 -0.297753,0.0418678 -0.414572,0.11921864 -0.08276,0.054542 -0.129898,0.1303482 -0.115048,0.2404246 0.02594,0.1911957 0.381092,0.1564344 0.513751,0.188763 0.378177,0.092425 0.688849,0.2667187 0.985845,0.5205885 0.445496,0.3788214 0.844029,0.7097535 1.392484,0.9299062 0.08791,0.035304 0.263746,0.074044 0.224146,-0.073518 -0.05445,-0.2082531 -0.244048,-0.1764974 -0.279687,-0.4232271 -0.01466,-0.1027379 0.0017,-0.2028565 -0.01587,-0.3040078 -0.09662,-0.559307 -0.792302,-0.856732 -1.257599,-1.0451509 -0.1879,-0.076359 -0.395107,-0.13096404 -0.599045,-0.14306254 -0.06662,-0.003897 -0.138316,-0.009695 -0.212244,-0.0119219 z m -1.196108,0.0556354 c -0.0304,-0.001984 -0.06387,0.00378 -0.09521,0.011922 -0.06328,0.017159 -0.123943,0.051323 -0.172573,0.073518 -0.225716,0.1035313 -0.462596,0.037883 -0.692274,0.1092839 -0.05959,0.018485 -0.153935,0.065903 -0.158688,0.1390885 -0.0062,0.095796 0.12985,0.1212528 0.196376,0.1470365 0.103157,0.039865 0.187269,0.1235459 0.305474,0.099349 0.09523,-0.019337 0.170569,-0.088454 0.267785,-0.107297 0.111474,-0.021618 0.222317,-0.039094 0.307457,-0.1212054 0.06296,-0.060691 0.234863,-0.2385859 0.128933,-0.3199035 -0.02564,-0.019734 -0.05625,-0.029766 -0.08729,-0.031792 z M 7.6278277,1.5380036 c -0.042817,0.0047 -0.089055,0.015185 -0.1388516,0.033778 C 7.2078191,1.6774952 7.0362648,1.8223372 6.7887675,1.9294386 6.55117,2.0315815 6.2825174,2.0434977 6.0449198,2.1559541 5.8053425,2.2703938 5.9442053,2.6987761 5.7553152,2.9050452 5.5236577,3.1569318 5.13983,3.147511 4.8269934,3.1772614 c -0.078011,0.0075 -0.5891526,0.016107 -0.6030125,0.099349 -0.0198,0.1303067 1.285535,-0.011751 1.3766139,-0.037753 0.2098778,-0.059897 0.361383,-0.212748 0.5633407,-0.2900989 0.2415575,-0.092623 0.5298437,-0.1328444 0.6526023,0.1311406 0.1435485,0.3094037 0.030149,0.6125327 -0.079344,0.9100365 -0.1235506,0.3351875 -0.08376,0.415887 0.00595,0.7490911 0.056034,0.2082526 0.018426,0.3381449 -0.069425,0.5344973 -0.2177973,0.4859228 -0.8208025,1.3482148 -0.599045,1.9194219 0.1698821,0.4363388 0.5499977,0.8093413 0.8469945,1.1603957 0.2019578,0.238003 0.1706514,0.4734044 0.3134078,0.7490911 0.1352325,0.2598199 0.3335439,0.5091159 0.497882,0.7550521 0.2356175,0.3510542 0.2881345,0.8053132 0.5692914,1.1266172 0.2474972,0.281636 1.0004398,0.784879 1.3885156,0.796779 0.1176108,0.0038 0.2223693,-0.108464 0.3352279,-0.09538 0.354416,0.04066 0.565884,0.379766 0.87278,0.518601 0.281158,0.126935 0.666918,0.02226 0.902535,0.244399 0.0824,0.07756 0.142871,0.166071 0.19836,0.25632 h 0.1329 c -0.04324,-0.216038 0.03516,-0.454483 -0.05752,-0.65769 -0.207898,-0.456173 -0.744444,-0.01726 -1.071141,-0.220554 0.233638,-0.17652 0.45625,-0.485369 0.468128,-0.784857 0.01267,-0.279655 -0.180404,-0.490454 -0.450276,-0.309969 -0.147508,0.09877 -0.140637,0.282371 -0.249933,0.403357 C 10.58294,11.345347 9.6053404,11.40187 9.5340612,11.023842 9.466742,10.670804 9.3332335,10.011854 9.5023237,9.674683 9.6322103,9.4148632 9.7984143,9.1082094 10.091452,9.007058 c 0.298975,-0.1023411 0.706765,0.01576 1.039402,-0.069545 0.287096,-0.073186 0.607492,-0.1676484 0.88865,-0.029805 0.287096,0.14062 0.333465,0.4555214 0.454243,0.7312083 0.07029,0.1584703 0.333117,0.3694017 0.263818,-0.053649 -0.05504,-0.3312209 -0.362705,-0.7337855 -0.202326,-1.0570729 0.145329,-0.2895702 0.496238,-0.3839396 0.682356,-0.6318594 0.182752,-0.243953 0.05023,-0.5568212 0.188441,-0.8126744 0.137608,-0.2558532 0.462409,-0.3362883 0.589128,-0.6040416 0.06178,-0.1303066 0.345654,-0.8996562 0.624831,-0.6557031 0.119196,0.1029362 0.04577,0.2348231 0.232082,0.1053098 0.07623,-0.053153 0.3613,-0.2525164 0.192408,-0.3457342 -0.155231,-0.08588 -0.424643,0.053056 -0.509783,-0.1629324 C 14.387786,5.0476885 15.0744,4.8577523 15.1635,4.5880156 15.216362,4.4295453 15.217703,4.3731322 14.812403,4.2144634 14.535206,4.1055772 14.240615,3.5071315 13.959458,3.5249817 13.803238,3.5351763 13.836097,3.7100199 13.737296,3.7375884 13.501678,3.8050237 13.372019,3.4452791 13.20966,3.3223109 13.092445,3.2330597 12.65399,3.0421477 12.509452,3.1514307 c -0.346498,0.2637866 0.582178,1.5979912 -0.0734,1.8498775 -0.161169,0.061683 -0.498294,-0.626065 -0.724011,-0.7172995 -0.362336,-0.1483552 -0.97987,-0.097017 -0.96601,-0.6696119 0.01368,-0.5573235 0.71241,-0.3901432 0.876748,-0.7709478 0.146914,-0.337171 -0.369502,-0.858234 -0.672438,-0.780883 -0.01653,0.084095 0.04088,0.282267 -0.0119,0.3457345 C 10.772915,2.606438 9.7399392,2.4136153 9.5122416,2.3427302 9.1221858,2.2205553 8.7062484,2.1357113 8.3478722,1.9314255 8.1142347,1.7987387 7.960652,1.5796614 7.7309745,1.5419776 l 0.017852,-0.00199 c -0.038312,-0.00645 -0.078182,-0.00669 -0.1209988,-0.00199 z m 2.0113639,0.1450495 v 0.00199 c -0.1999778,0.1114646 -0.2056189,0.1637228 0.011902,0.2702291 0.1999778,0.097581 0.4010804,0.181306 0.6168984,0.2324766 0.120381,0.02856 0.362787,0.026676 0.247948,-0.1629322 C 10.41892,1.8647565 10.136777,1.8001726 9.9744187,1.7386886 9.8859137,1.7059631 9.6589914,1.6721446 9.6391916,1.6830531 Z m 2.1581494,0.1371016 c -0.09445,0.00528 -0.162867,0.037094 -0.170588,0.1112708 -0.0204,0.193774 0.367179,0.2245866 0.483997,0.2563203 0.185327,0.048592 0.482107,0.1970876 0.533586,0.4033567 0.03485,0.1428019 -0.161161,0.3199037 0.113066,0.3199037 0.123154,0 0.384816,0.071531 0.384816,0.071531 0,0 0.126944,0.067128 0.23208,0.049674 C 13.671295,2.9828252 13.179179,2.513465 13.106514,2.4341307 12.971281,2.2853789 12.903831,2.1399129 12.709795,2.0605786 c -0.079,-0.03213 -0.629316,-0.2562914 -0.912454,-0.2404239 z m 7.008037,0.4132916 c -7.94e-4,0.031932 0.01212,0.083948 0.0238,0.1371016 0.02515,0.112258 0.05324,0.2444853 -0.0079,0.2920859 -0.111472,0.088061 -0.275871,-0.07344 -0.359031,-0.1390886 -0.06652,-0.053352 -0.200512,-0.1972226 -0.293571,-0.1510103 -0.159586,0.07874 0.388871,0.4749713 0.43639,0.5205885 0.07603,0.072393 0.131462,0.1672241 0.212245,0.2324765 0.162358,0.1305051 0.193611,-0.025579 0.30944,-0.1053098 0.177605,-0.1219766 0.337367,0.1061293 0.422507,0.2285025 0.129687,0.189609 0.210523,0.401703 0.355062,0.5841718 0.164537,0.2082527 0.327542,0.4137118 0.464161,0.6437813 0.14335,0.2419697 0.283986,0.4872011 0.466145,0.7014036 0.118799,0.1386367 0.345235,0.2228588 0.394735,0.1788281 0.08693,-0.07616 -0.04131,-0.2226792 -0.06943,-0.2980468 C 21.08228,4.8467114 20.937553,4.6711075 20.834595,4.4727718 20.730844,4.274436 20.600527,3.8110787 20.598547,3.7952119 20.054052,3.2160714 19.454811,2.6935853 18.805378,2.2334463 Z m 2.673885,2.5989687 c -9e-4,0.018445 0.0062,0.4116378 0.01587,0.5941067 0.01862,0.3391542 0.06209,0.6801371 0.170589,1.0034245 0.05207,0.1554952 0.140936,0.2983293 0.196376,0.4530312 0.130679,0.3629545 0.05527,0.7557292 0.12695,1.1266172 0.07048,0.3669212 0.315588,0.6603252 0.422506,1.0153463 0.099,0.327254 0.03913,0.7079403 0.178523,1.0232951 0.07959,0.179097 0.226314,0.314245 0.327293,0.480848 0.126719,0.21222 0.268276,0.78697 0.537554,0.856388 0.19087,0.04919 0.175003,-0.397602 0.202326,-0.510653 0.02732,-0.117217 0.06651,-0.242643 0.09919,-0.369579 C 23.497046,8.4028811 22.68903,6.4587686 21.479263,4.832415 Z m -6.94853,7.78101 c -0.02472,-0.0018 -0.05839,0.0033 -0.09919,0.01788 -0.04607,0.01629 -0.08752,0.04368 -0.12695,0.07351 h 0.30349 c -0.007,-0.05033 -0.02607,-0.08759 -0.07736,-0.0914 z m 1.584892,0.0457 c -0.124935,-5.53e-4 -0.250352,0.01815 -0.374898,0.0457 h 0.712109 c -0.004,-0.0011 -0.0078,-0.0029 -0.0119,-0.004 -0.103949,-0.02831 -0.214555,-0.04124 -0.32531,-0.04173 z" />
  <path
     id="path12781"
     style="fill:#ffc160;fill-opacity:1;stroke-width:1.98167"
     d="m 11.890939,12.539369 c 0.223282,0.271645 0.285781,0.622525 0.690292,0.733196 0.223737,0.06089 0.510163,-0.04154 0.71806,0.0616 0.603894,0.299488 0.195227,1.002155 0,1.394859 -0.201958,0.408573 -0.416395,0.883074 -0.329277,1.351146 0.07484,0.404606 0.383224,0.668227 0.597062,0.997464 0.184931,0.285603 0.238596,0.66002 0.547472,0.84844 0.243537,0.147363 0.720301,0.157871 0.86088,0.433161 0.155428,0.305437 -0.192349,0.773474 -0.267785,1.068996 -0.09504,0.372871 -0.212459,0.743804 -0.329277,1.112708 -0.116027,0.366921 -0.309735,0.622531 -0.470111,0.955737 -0.132264,0.275686 -0.505382,1.359003 0.05753,1.309419 0.79991,-0.0716 1.098173,-1.125097 1.781267,-1.380951 0.140776,-0.05276 1.321456,-0.932216 1.531335,-1.108733 0.211857,-0.176123 0.738022,-0.385863 0.807322,-0.598081 0.07048,-0.212221 0.337374,-0.370252 0.426473,-0.739157 0.101174,-0.424438 0.768182,-0.540983 1.059238,-0.82857 0.397977,-0.392705 0.595458,-0.972559 0.803355,-1.4803 0.176813,-0.43237 0.555605,-0.763855 0.664505,-1.231926 0.136617,-0.591041 -0.320375,-0.729321 -0.876748,-0.782871 -0.395996,-0.03769 -0.859587,0.0087 -1.237763,-0.137101 -0.437552,-0.169379 -0.236519,-0.543004 -0.493915,-0.84844 -0.199979,-0.238004 -0.583672,-0.310224 -0.854929,-0.449058 -0.368276,-0.187427 -0.724742,-0.407529 -1.124698,-0.516614 -0.415795,-0.113249 -0.913118,0.01805 -1.277434,0.220555 -0.113849,0.06366 -0.377129,0.282154 -0.511767,0.174854 -0.141568,-0.112456 0.106121,-0.581971 -0.220179,-0.464953 -0.298977,0.105713 -0.436843,0.562253 -0.68434,0.528536 -0.293037,-0.04205 -0.532148,-0.129705 -0.831125,-0.105309 -0.261357,0.02122 -0.518055,0.08558 -0.702193,-0.158959 -0.08292,-0.110753 -0.09548,-0.234067 -0.09521,-0.359644 z" />
</svg>
