<svg height="24" viewBox="0 0 24 24" width="24" xmlns="http://www.w3.org/2000/svg"><path d="m.393808 3.284839h20.19109v20.22682h-20.19109z" fill="#cdebb0" transform="matrix(.99249711 -.12226806 .1218299 .99255099 0 0)"/><g fill="none"><path d="m2.3207286 5.1730067 5.2899885-.6516862" stroke="#4188c2" stroke-linecap="round" stroke-width=".766707"/><path d="m11.424034 4.051549 5.289988-.6516861" stroke="#4188c2" stroke-linecap="round" stroke-width=".766707"/><path d="m5.0152044 7.7293145 5.2899886-.6516862" stroke="#4188c2" stroke-linecap="round" stroke-width=".766707"/><path d="m14.471046 6.5644271 5.289988-.6516861" stroke="#4188c2" stroke-linecap="round" stroke-width=".766707"/><path d="m2.8260737 10.853414 5.2899884-.651686" stroke="#4188c2" stroke-linecap="round" stroke-width=".766707"/><path d="m12.091163 9.712026 5.289989-.6516862" stroke="#4188c2" stroke-linecap="round" stroke-width=".766707"/><path d="m6.3318631 16.878603 5.2899889-.651686" stroke="#4188c2" stroke-linecap="round" stroke-width=".766707"/><path d="m15.596953 15.737215 5.289987-.651686" stroke="#4188c2" stroke-linecap="round" stroke-width=".766707"/><path d="m3.6513415 20.506644 5.2899885-.651687" stroke="#4188c2" stroke-linecap="round" stroke-width=".766707"/><path d="m12.916431 19.365255 5.289988-.651686" stroke="#4188c2" stroke-linecap="round" stroke-width=".766707"/><path d="m9.4789891 13.220795 5.2899889-.651686" stroke="#4188c2" stroke-linecap="round" stroke-width=".766707"/><path d="m2.1245538 14.126805 4.5752099-.563631" stroke="#4188c2" stroke-linecap="round" stroke-width=".766707"/><path d="m17.698008 12.208275 4.384601-.54015" stroke="#4188c2" stroke-linecap="round" stroke-width=".766707"/><path d="m5.4338242 2.8385649 13.9089678 18.2479171" stroke="#fff" stroke-width="1.2"/><path d="m1.9869954 12.449134 19.5455466-2.4736061" stroke="#fff" stroke-width="1.2"/><path d="m.340236 3.267492h20.19109v20.22682h-20.19109z" stroke="#0b2b44" stroke-linecap="square" stroke-width="1.15006" transform="matrix(.99249711 -.12226806 .1218299 .99255099 0 0)"/></g></svg>