<svg height="24" width="24" xmlns="http://www.w3.org/2000/svg"><g transform="translate(0 -8)"><path d="m 6.499999 8 h 6.499999 v 6.499999 h -6.499999 z" fill="#6e97c4"/><path d="m 13.000001 8 h 6.499999 v 6.499999 h -6.499999 z" fill="#253e5b"/><path d="m 6.499999 14.5 h 6.499999 v 6.499999 h -6.499999 z" fill="#253e5b"/><path d="m 13.000001 14.5 h 6.499999 v 6.499999 h -6.499999 z" fill="#6d97c4"/><path d="m 0 8 h 6.499999 v 6.499999 h -6.499999 z" fill="#253e5b"/><path d="m 0 14.5 h 6.499999 v 6.499999 h -6.499999 z" fill="#6d97c4"/><path d="m 6.499999 21.000002 h 6.499999 v 6.499999 h -6.499999 z" fill="#6d97c4"/><path d="m 0 21.000002 h 6.499999 v 6.499999 h -6.499999 z" fill="#253e5b"/><path d="m 0 8 h 19.499998 v 19.499998 h -19.499998 z" fill="none"/><rect fill="#5a8c5a" height="8.99999997" rx="1.81034099397" stroke-width=".69230769" width="8.99999997" x="15.00000011" y="23.00000011"/><g fill-rule="evenodd" transform="matrix(.69230769 0 0 .69230769 1.846154 9.846154)"><path d="m 21.6 25.499999 h 7.8" fill="#fff" stroke="#fff" stroke-linecap="round" stroke-linejoin="round" stroke-width="2.6"/><path d="m 25.5 29.399999 v -7.799999" fill="#fff" stroke="#fff" stroke-linecap="round" stroke-linejoin="round" stroke-width="2.6"/><path d="m 20.3 25.499999 h 10.4 s 0 0 0 -2.6 c 0 -2.599999 -.65 -2.599999 -5.2 -2.599999 s -5.2 0 -5.2 2.599999 z" fill="#fcffff" opacity=".3"/></g></g><g fill="#fff" stroke-linejoin="round" stroke-width="1.5"><path d="m .89662795 9.6562834 v -6.2037783 h 1.25260465 v 2.7548838 l 2.5305999 -2.7548838 h 1.6842454 l -2.3359384 2.416342 2.4628915 3.7874363 h -1.6207688 l -1.7054043 -2.9114594 -1.0156253 1.0367842 v 1.8746752 z"/><path d="m 7.1215652 9.6562834 v -6.2037783 h 1.8746752 l 1.1256516 4.2317723 1.112956 -4.2317723 h 1.878907 v 6.2037783 h -1.163737 v -4.8834654 l -1.231446 4.8834654 h -1.2060554 l -1.227214 -4.8834654 v 4.8834654 z"/><path d="m 14.39175 9.6562834 v -6.1529971 h 1.252605 v 5.1077493 h 3.114584 v 1.0452478 z"/></g></svg>