<svg height="24" viewBox="0 0 24 24" width="24" xmlns="http://www.w3.org/2000/svg"><g transform="translate(0 -8)"><path d="m 4.0182614 11.980624 h 16.050539 v 7.0133586 h -16.050539 z" style="fill:#497db4;stroke:#497db4;stroke-width:7.9114;stroke-linecap:round;stroke-linejoin:round;stroke-dashoffset:.680315"/><text style="font-size:8.53336;font-family:sans-serif;letter-spacing:0;word-spacing:0;fill:#f8fbf8;stroke:#4c4d4c;stroke-width:.377953;stroke-opacity:.933333" x=".07692309" y="17.884613"><tspan style="font-weight:bold;font-size:8.53336;font-family:Arial;fill:#f8fbf8;stroke:none;stroke-width:.377953;stroke-opacity:.933333" x=".07692309" y="17.884613">HTML</tspan></text><g transform="translate(33 8)"><rect fill="#c4a000" height="11" rx="2.0114901" width="11" x="-20" y="13"/><g fill="#fcffff"><path d="m -15 14 v 2.0625 c -.537663 .111041 -1.024662 .383291 -1.375 .78125 l -1.78125 -1.03125 -.5 .875 1.78125 1.03125 c -.082063 .247432 -.125 .506395 -.125 .78125 s .04294 .533818 .125 .78125 l -1.78125 1.03125 .5 .875 1.78125 -1.03125 c .352503 .40042 .832682 .670182 1.375 .78125 v 2.0625 h 1 v -2.0625 c .537663 -.111041 1.024662 -.383291 1.375 -.78125 l 1.78125 1.03125 .5 -.875 -1.78125 -1.03125 c .082063 -.247432 .125 -.506395 .125 -.78125 s -.04294 -.533818 -.125 -.78125 l 1.78125 -1.03125 -.5 -.875 -1.78125 1.03125 c -.352503 -.40042 -.832682 -.670182 -1.375 -.78125 v -2.0625 z m .5 3.5 c .552 0 1 .448 1 1 s -.448 1 -1 1 -1 -.448 -1 -1 .448 -1 1 -1 z"/><path d="m -19 19 9 -.0096 s 0 0 0 -2 c 0 -2.9904 -1 -2.9904 -4.5 -2.9904 s -4.5 0 -4.5 3 z" fill-rule="evenodd" opacity=".3"/></g></g></g></svg>